<?xml version="1.0" standalone="no"?>
<!DOCTYPE svg PUBLIC "-//W3C//DTD SVG 20010904//EN"
 "http://www.w3.org/TR/2001/REC-SVG-20010904/DTD/svg10.dtd">
<svg version="1.0" xmlns="http://www.w3.org/2000/svg"
 width="700.000000pt" height="700.000000pt" viewBox="0 0 700.000000 700.000000"
 preserveAspectRatio="xMidYMid meet">
<metadata>
Created by potrace 1.11, written by Peter Selinger 2001-2013
</metadata>
<g transform="translate(0.000000,700.000000) scale(0.100000,-0.100000)"
fill="#000000" stroke="none">
<path d="M3457 6794 c-1 -1 -38 -4 -82 -8 -391 -29 -750 -158 -1090 -389 -33
-23 -62 -43 -65 -47 -3 -3 -30 -24 -61 -47 -70 -52 -248 -226 -321 -313 -290
-350 -474 -801 -505 -1245 -11 -159 -5 -394 13 -483 l6 -32 -141 0 c-139 0
-141 0 -142 23 0 12 -2 33 -4 47 -2 14 -5 67 -6 119 -2 78 -6 94 -20 100 -15
5 -119 6 -243 2 l-28 -1 6 -131 c4 -73 8 -137 9 -143 1 -7 -31 -12 -95 -14
l-98 -3 -1 -62 c-1 -115 2 -242 6 -246 3 -2 56 -3 119 -2 l115 1 11 -42 c39
-157 56 -216 91 -322 102 -302 273 -617 479 -876 107 -136 348 -374 475 -471
361 -275 775 -464 1170 -533 17 -3 41 -8 54 -11 44 -8 227 -28 269 -29 27 0
32 -4 33 -26 5 -118 3 -914 -2 -922 -4 -6 -37 -11 -75 -13 -99 -4 -275 -16
-298 -21 -11 -2 -48 -6 -81 -9 -33 -3 -67 -8 -75 -10 -8 -2 -30 -7 -47 -10
-85 -14 -102 -17 -158 -31 -239 -60 -322 -146 -211 -222 33 -22 174 -76 231
-87 27 -5 163 -30 225 -40 14 -3 57 -7 95 -11 39 -3 73 -8 76 -10 9 -5 341
-18 479 -18 129 0 415 12 449 19 11 2 46 6 78 10 276 29 517 97 575 161 37 42
22 85 -42 125 -28 18 -162 67 -200 73 -14 2 -45 9 -70 15 -44 10 -204 35 -288
45 -44 6 -183 16 -293 21 -35 2 -69 4 -75 4 -15 1 -15 951 0 952 6 0 20 2 31
4 11 1 52 6 90 9 39 3 79 8 90 10 11 2 42 7 68 10 219 32 517 125 727 228 382
185 694 432 967 763 62 76 180 240 200 280 9 16 19 32 23 35 10 8 102 175 142
260 89 187 154 365 203 560 l31 125 64 3 c35 1 66 4 68 7 3 3 5 165 2 280 0
23 -4 25 -44 25 l-45 0 5 48 c2 26 6 91 8 145 3 84 2 97 -13 98 -45 3 -262 1
-265 -2 -3 -3 -15 -210 -16 -271 0 -16 -13 -18 -135 -18 l-136 0 6 58 c3 31 8
73 11 92 6 44 6 333 0 380 -3 19 -8 62 -11 95 -23 222 -113 509 -234 740 -334
640 -964 1083 -1681 1181 -91 12 -393 26 -403 18z m313 -389 c24 -5 85 -14
125 -20 96 -13 294 -77 423 -136 379 -174 716 -511 891 -890 68 -148 130 -344
146 -464 3 -22 8 -51 10 -65 22 -119 22 -381 0 -525 -5 -37 -8 -53 -19 -110
-12 -61 -49 -190 -75 -260 -185 -505 -574 -900 -1075 -1092 -109 -42 -289 -88
-371 -97 -33 -3 -71 -9 -85 -11 -14 -3 -92 -6 -175 -7 -288 -1 -546 58 -802
185 -196 97 -331 194 -489 351 -234 235 -391 507 -479 831 -13 50 -26 104 -29
120 -2 17 -10 64 -17 105 -20 126 -17 357 7 555 14 113 87 347 152 485 120
254 321 508 525 663 16 12 41 31 55 43 165 131 486 273 722 319 26 5 193 25
235 28 52 4 293 -2 325 -8z m-2344 -2503 c143 -442 422 -834 790 -1111 220
-165 478 -292 739 -364 97 -27 179 -45 235 -53 19 -2 46 -7 60 -10 140 -28
529 -22 690 11 14 3 39 8 55 11 17 3 80 18 141 34 604 156 1138 589 1419 1149
41 81 111 250 132 316 l10 30 141 2 c107 1 142 -2 142 -11 0 -12 -13 -60 -52
-191 -76 -257 -233 -562 -412 -805 -161 -217 -405 -445 -640 -598 -109 -71
-289 -167 -376 -202 -30 -12 -63 -26 -73 -31 -70 -37 -373 -117 -527 -139
-204 -29 -517 -31 -677 -4 -16 3 -55 9 -88 15 -323 55 -677 201 -958 396 -152
105 -361 293 -484 434 -172 198 -358 511 -459 774 -42 110 -113 346 -107 357
2 3 69 7 149 7 128 0 146 -2 150 -17z"/>
</g>
</svg>
